PathFileType   4   (X/Y/Z)																																																																																																																							
DataRate  CameraRate  NumFrames  NumMarkers  Units  OrigDataRate  OrigDataStartFrame  OrigNumFrames  																																																																																																																							
  120.0      120.0        8         39         mm      120.0          55        109																																																																																																																							
Frame#      Time	midhip		hip_r		hip_l		knee_r		knee_l		ankle_r		ankle_l		midasis		asis_r		asis_l		psis_r		psis_l		epicondLat_r		epicondLat_l		epicondMed_r		epicondMed_l		malleolusLat_r		malleolusLat_l		malleolusMedv_r		malleolusMedv_l		heel_r		heel_l		sternalnotch		xyphoidprocess		neck		subclavicle_r		subclavicle_l		toe_r		toe_l		thighwand_r		thighwand_l		upperleg1_r		upperleg1_l		upperleg2_r		upperleg2_l		shankwand_r		shankwand_l		lowerleg1_r		lowerleg1_l		
              X1          Y1          Z1          X2          Y2          Z2          X3          Y3          Z3          X4          Y4          Z4          X5          Y5          Z5          X6          Y6          Z6          X7          Y7          Z7          X8          Y8          Z8          X9          Y9          Z9          X10          Y10          Z10          X11          Y11          Z11          X12          Y12          Z12          X13          Y13          Z13          X14          Y14          Z14          X15          Y15          Z15          X16          Y16          Z16          X17          Y17          Z17          X18          Y18          Z18          X19          Y19          Z19          X20          Y20          Z20          X21          Y21          Z21          X22          Y22          Z22          X23          Y23          Z23          X24          Y24          Z24          X25          Y25          Z25          X26          Y26          Z26          X27          Y27          Z27          X28          Y28          Z28          X29          Y29          Z29          X30          Y30          Z30          X31          Y31          Z31          X32          Y32          Z32          X33          Y33          Z33          X34          Y34          Z34          X35          Y35          Z35          X36          Y36          Z36          X37          Y37          Z37          X38          Y38          Z38          X39          Y39          Z39          																																																																																																																							

	55	1.475	1471.772	881.676	-253.232	1468.266	879.763	-178.123	1475.278	883.589	-328.34	1443.62	470.222	-133.114	1433.156	460.651	-355.429	1406.093	69.443	-128.439	1382.769	71.13	-365.058	1565.562	960.283	-246.852	1559.998	957.247	-127.656	1571.125	963.319	-366.048	1380.721	1017.587	-221.377	1389.624	1015.829	-306.729	1452.503	476.011	-75.583	1441.177	463.527	-412.799	1427.912	477.714	-186.547	1428.93	464.878	-302.846	1391.353	71.256	-91.298	1365.031	74.28	-399.647	1416.052	83.838	-157.967	1391.151	83.745	-337.142	1342.818	42.547	-143.96	1317.504	42.864	-352.095	1486.31	1370.049	-235.724	1568.821	1206.565	-246.828	1372.908	1436.193	-240.065	1495.246	1358.552	-183.404	1509.935	1365.456	-290.507	1525.746	39.591	-99.495	1500.563	41.116	-401.792	1506.333	591.475	-9.698	1596.305	552.974	-341.626	1522.256	651.412	-83.18	1535.7	618.43	-381.759	1513.803	563.961	-98.91	1510.339	536.162	-386.138	1418.209	205.077	-5.913	1406.425	211.772	-479.718	1406.032	171.934	-78.72	1385.829	173.852	-410.803
	56	1.48333	1471.709	881.642	-253.237	1468.206	879.705	-178.128	1475.213	883.58	-328.345	1443.643	470.207	-133.178	1433.258	460.624	-355.452	1406.14	69.384	-128.43	1382.807	71.147	-365.067	1565.509	960.235	-246.834	1559.95	957.161	-127.663	1571.068	963.309	-366.004	1380.637	1017.594	-221.494	1389.611	1015.796	-306.755	1452.507	475.991	-75.643	1441.259	463.507	-412.825	1427.811	477.903	-186.74	1428.576	465.05	-302.824	1391.389	71.204	-91.294	1365.056	74.3	-399.649	1415.905	83.93	-158.01	1391.293	83.632	-337.15	1342.816	42.569	-143.96	1317.518	42.861	-352.119	1486.299	1369.978	-235.757	1568.859	1206.504	-246.66	1372.88	1436.092	-240.273	1495.287	1358.573	-183.36	1509.876	1365.3	-290.623	1525.707	39.651	-99.482	1500.592	41.073	-401.752	1506.352	591.451	-9.701	1596.12	552.927	-341.45	1522.26	651.416	-83.158	1535.707	618.373	-381.779	1513.771	563.99	-99.014	1510.223	536.059	-386.079	1418.225	205.077	-5.938	1406.45	211.756	-479.72	1406.19	171.898	-78.644	1385.893	173.821	-410.754
	57	1.49167	1471.675	881.631	-253.268	1468.164	879.689	-178.161	1475.186	883.574	-328.376	1443.663	470.19	-133.244	1433.399	460.613	-355.474	1406.186	69.34	-128.426	1382.868	71.158	-365.079	1565.467	960.232	-246.851	1559.898	957.151	-127.718	1571.036	963.312	-365.985	1380.507	1017.63	-221.649	1389.532	1015.768	-306.811	1452.507	475.972	-75.706	1441.361	463.502	-412.852	1427.525	478.162	-186.87	1428.396	465.244	-302.824	1391.422	71.167	-91.296	1365.094	74.317	-399.649	1415.81	83.92	-158.069	1391.434	83.465	-337.121	1342.811	42.585	-143.969	1317.544	42.879	-352.156	1486.223	1369.995	-235.822	1568.968	1206.615	-246.726	1372.718	1436.01	-240.509	1495.24	1358.608	-183.424	1509.79	1365.337	-290.698	1525.65	39.678	-99.459	1500.617	41.034	-401.725	1506.376	591.42	-9.718	1595.962	552.887	-341.294	1522.264	651.421	-83.135	1535.785	618.301	-381.825	1513.669	564.036	-99.109	1510.291	536.097	-386.024	1418.229	205.074	-5.959	1406.465	211.729	-479.707	1406.145	171.848	-78.747	1385.865	173.839	-410.753
	58	1.5	1471.659	881.645	-253.316	1468.128	879.717	-178.209	1475.19	883.573	-328.423	1443.685	470.176	-133.318	1433.561	460.616	-355.492	1406.246	69.306	-128.415	1382.935	71.169	-365.099	1565.433	960.266	-246.889	1559.834	957.209	-127.798	1571.032	963.324	-365.98	1380.332	1017.699	-221.826	1389.4	1015.756	-306.908	1452.502	475.957	-75.776	1441.471	463.51	-412.877	1427.308	478.166	-186.802	1428.279	465.417	-302.842	1391.466	71.141	-91.291	1365.131	74.336	-399.653	1415.87	83.725	-158.146	1391.436	83.384	-337.105	1342.801	42.583	-143.972	1317.573	42.906	-352.195	1486.081	1370.103	-236.025	1568.963	1206.8	-247.03	1372.592	1435.975	-240.58	1495.056	1358.665	-183.639	1509.703	1365.523	-290.873	1525.597	39.671	-99.446	1500.626	41.006	-401.711	1506.4	591.395	-9.753	1595.877	552.876	-341.195	1522.21	651.436	-83.174	1535.865	618.259	-381.858	1513.573	563.99	-99.152	1510.363	536.181	-385.995	1418.228	205.071	-5.973	1406.475	211.703	-479.689	1406.113	171.843	-78.89	1385.954	173.864	-410.789
	59	1.50833	1471.638	881.67	-253.374	1468.073	879.763	-178.268	1475.203	883.577	-328.48	1443.704	470.178	-133.402	1433.724	460.632	-355.496	1406.317	69.287	-128.398	1382.994	71.165	-365.123	1565.394	960.311	-246.927	1559.744	957.288	-127.873	1571.045	963.334	-365.981	1380.148	1017.774	-222	1389.252	1015.77	-307.019	1452.494	475.959	-75.855	1441.574	463.528	-412.889	1427.19	478.091	-186.702	1428.311	465.418	-302.869	1391.521	71.13	-91.281	1365.154	74.342	-399.658	1415.905	83.589	-158.203	1391.43	83.453	-337.123	1342.783	42.56	-143.961	1317.59	42.912	-352.216	1486.023	1370.144	-236.165	1568.852	1206.815	-247.187	1372.571	1436.024	-240.536	1494.93	1358.665	-183.763	1509.711	1365.595	-291.003	1525.57	39.65	-99.479	1500.619	40.994	-401.703	1506.42	591.384	-9.796	1595.881	552.89	-341.176	1522.089	651.525	-83.241	1535.837	618.343	-381.863	1513.495	563.96	-99.202	1510.364	536.205	-386.008	1418.231	205.069	-5.979	1406.488	211.688	-479.678	1405.996	171.876	-78.857	1386.004	173.824	-410.78
	60	1.51667	1471.605	881.694	-253.428	1468.002	879.81	-178.324	1475.208	883.579	-328.533	1443.723	470.206	-133.477	1433.87	460.645	-355.479	1406.384	69.285	-128.38	1383.035	71.13	-365.141	1565.347	960.35	-246.957	1559.637	957.363	-127.927	1571.058	963.337	-365.988	1379.988	1017.827	-222.166	1389.115	1015.798	-307.104	1452.488	475.988	-75.927	1441.658	463.541	-412.881	1427.155	478.066	-186.654	1428.488	465.53	-302.676	1391.573	71.136	-91.27	1365.159	74.32	-399.656	1415.947	83.526	-158.204	1391.48	83.539	-337.171	1342.757	42.527	-143.941	1317.589	42.878	-352.207	1485.931	1370.116	-236.168	1568.535	1206.671	-247.154	1372.545	1436.167	-240.566	1494.817	1358.633	-183.738	1509.617	1365.524	-291.03	1525.593	39.627	-99.584	1500.604	41.005	-401.7	1506.423	591.397	-9.846	1595.937	552.901	-341.216	1522.013	651.63	-83.286	1535.859	618.424	-381.924	1513.457	563.967	-99.238	1510.435	536.279	-385.958	1418.225	205.076	-5.986	1406.509	211.69	-479.685	1405.837	171.96	-78.842	1385.865	173.786	-410.809
	61	1.525	1471.566	881.711	-253.461	1467.932	879.849	-178.357	1475.2	883.572	-328.565	1443.736	470.244	-133.521	1433.95	460.637	-355.449	1406.415	69.304	-128.357	1383.04	71.096	-365.149	1565.29	960.386	-246.976	1559.531	957.437	-127.96	1571.049	963.336	-365.992	1379.859	1017.846	-222.323	1388.984	1015.813	-307.161	1452.484	476.028	-75.969	1441.698	463.53	-412.857	1427.312	477.991	-186.644	1428.637	465.696	-302.498	1391.593	71.161	-91.251	1365.141	74.294	-399.651	1415.925	83.542	-158.174	1391.49	83.62	-337.249	1342.735	42.495	-143.918	1317.583	42.823	-352.182	1485.839	1370.072	-236.229	1568.216	1206.498	-246.998	1372.477	1436.305	-240.65	1494.672	1358.629	-183.646	1509.556	1365.392	-291.214	1525.656	39.582	-99.71	1500.587	41.034	-401.7	1506.404	591.427	-9.899	1596.009	552.906	-341.284	1522.016	651.641	-83.313	1535.994	618.464	-382.013	1513.514	563.998	-99.213	1510.549	536.313	-385.923	1418.203	205.088	-5.99	1406.53	211.693	-479.708	1405.942	171.972	-78.907	1385.801	173.865	-410.903
	62	1.53333	1471.532	881.71	-253.458	1467.887	879.864	-178.354	1475.178	883.556	-328.561	1443.741	470.279	-133.537	1433.922	460.604	-355.431	1406.394	69.356	-128.336	1383.012	71.082	-365.146	1565.229	960.419	-246.974	1559.452	957.493	-127.97	1571.006	963.345	-365.979	1379.734	1017.828	-222.479	1388.846	1015.804	-307.209	1452.477	476.062	-75.983	1441.671	463.496	-412.838	1427.425	478.025	-186.812	1428.854	465.57	-302.724	1391.566	71.219	-91.232	1365.114	74.282	-399.648	1415.876	83.591	-158.151	1391.451	83.766	-337.314	1342.726	42.477	-143.908	1317.577	42.782	-352.161	1485.822	1370.019	-236.326	1568.115	1206.389	-246.873	1372.483	1436.294	-240.732	1494.648	1358.644	-183.551	1509.537	1365.252	-291.492	1525.736	39.518	-99.789	1500.566	41.072	-401.701	1506.368	591.453	-9.954	1596.062	552.907	-341.345	1522	651.57	-83.299	1536.162	618.521	-382.091	1513.544	564.051	-99.246	1510.777	536.222	-386.043	1418.181	205.095	-5.988	1406.543	211.687	-479.737	1406.15	171.977	-78.934	1385.945	173.896	-410.91
